<svg width="300" height="128" viewBox="0 0 300 128" fill="none" xmlns="http://www.w3.org/2000/svg">
<path d="M96.2995 102.115H82.6162V126.188H49.4406V102.115H0V77.5248L51.6351 1.81192H82.6162V77.0071H96.2995V102.115ZM49.4406 77.0071V62.5116C49.4406 59.7937 49.5697 56.1699 49.6988 51.5106C49.957 46.8513 50.0861 44.5217 50.2151 44.2629H49.3115C47.3752 48.6633 45.1807 52.6754 42.7281 56.5581L29.0448 77.0071H49.4406Z" fill="#65FDBD" fill-opacity="0.1"/>
<path d="M194.664 64.1941C194.664 86.1962 190.921 102.374 183.692 112.599C176.334 122.823 165.103 128 149.871 128C135.026 128 123.924 122.694 116.308 111.951C108.821 101.209 105.077 85.2902 105.077 64.1941C105.077 42.0627 108.692 25.8847 116.179 15.5308C123.537 5.17695 134.768 0 150 0C164.716 0 175.947 5.43579 183.434 16.178C190.921 26.9201 194.664 42.8392 194.664 64.1941ZM138.382 64.1941C138.382 78.3013 139.286 88.0081 140.964 93.185C142.771 98.4914 145.611 101.08 149.742 101.08C153.873 101.08 156.842 98.362 158.649 92.9262C160.327 87.4904 161.231 77.913 161.231 64.1941C161.231 50.3458 160.327 40.7685 158.649 35.2032C156.842 29.638 154.002 26.9201 149.871 26.9201C145.74 26.9201 142.771 29.638 141.093 34.9444C139.286 40.2508 138.382 49.9575 138.382 64.1941Z" fill="#65FDBD" fill-opacity="0.1"/>
<path d="M300 102.115H286.317V126.188H253.141V102.115H203.701V77.5248L255.336 1.81192H286.317V77.0071H300V102.115ZM253.27 77.0071V62.5116C253.27 59.7937 253.399 56.1699 253.529 51.5106C253.787 46.8513 253.916 44.5217 254.045 44.2629H253.141C251.205 48.6633 249.01 52.6754 246.558 56.5581L232.745 77.1365H253.27V77.0071Z" fill="#65FDBD" fill-opacity="0.1"/>
</svg>
