<svg width="362" height="401" viewBox="0 0 362 401" fill="none" xmlns="http://www.w3.org/2000/svg">
<g clip-path="url(#clip0_634_110)">
<path d="M294.178 239.289C329.99 239.289 359.022 210.237 359.022 174.4C359.022 138.562 329.99 109.511 294.178 109.511C258.366 109.511 229.335 138.562 229.335 174.4C229.335 210.237 258.366 239.289 294.178 239.289Z" fill="white"/>
<path d="M80.8415 239.289C116.654 239.289 145.685 210.237 145.685 174.4C145.685 138.562 116.654 109.511 80.8415 109.511C45.0294 109.511 15.998 138.562 15.998 174.4C15.998 210.237 45.0294 239.289 80.8415 239.289Z" fill="white"/>
<path d="M118.965 122.029C125.602 132.247 129.432 144.34 129.432 157.454C129.432 193.304 100.414 222.343 64.5882 222.343C50.292 222.343 37.102 217.659 26.3799 209.825C37.953 227.537 57.9506 239.289 80.7565 239.289C116.582 239.289 145.6 210.25 145.6 174.4C145.6 152.855 135.133 133.78 118.965 122.029Z" fill="#EFEFEF"/>
<path d="M332.301 122.029C338.939 132.247 342.768 144.34 342.768 157.454C342.768 193.304 313.75 222.343 277.925 222.343C263.629 222.343 250.439 217.659 239.717 209.825C251.29 227.622 271.287 239.289 294.093 239.289C329.919 239.289 358.937 210.25 358.937 174.4C358.937 152.855 348.385 133.78 332.301 122.029Z" fill="#EFEFEF"/>
<path d="M80.8416 242.269C43.4843 242.269 13.0198 211.783 13.0198 174.4C13.0198 137.016 43.3992 106.53 80.8416 106.53C118.199 106.53 148.663 137.016 148.663 174.4C148.663 211.783 118.199 242.269 80.8416 242.269ZM80.8416 112.491C46.7179 112.491 18.9765 140.252 18.9765 174.4C18.9765 208.547 46.7179 236.308 80.8416 236.308C114.965 236.308 142.707 208.547 142.707 174.4C142.707 140.252 114.965 112.491 80.8416 112.491Z" fill="#231F20"/>
<path d="M80.8415 215.104C98.1835 215.104 112.242 201.036 112.242 183.682C112.242 166.327 98.1835 152.259 80.8415 152.259C63.4994 152.259 49.4409 166.327 49.4409 183.682C49.4409 201.036 63.4994 215.104 80.8415 215.104Z" fill="#231F20"/>
<path d="M73.0978 190.835C80.1945 190.835 85.9474 185.078 85.9474 177.976C85.9474 170.875 80.1945 165.118 73.0978 165.118C66.0012 165.118 60.2483 170.875 60.2483 177.976C60.2483 185.078 66.0012 190.835 73.0978 190.835Z" fill="white"/>
<path d="M294.178 242.269C256.821 242.269 226.356 211.783 226.356 174.4C226.356 137.016 256.821 106.53 294.178 106.53C331.536 106.53 362 137.016 362 174.4C362 211.783 331.536 242.269 294.178 242.269ZM294.178 112.491C260.055 112.491 232.313 140.252 232.313 174.4C232.313 208.547 260.055 236.308 294.178 236.308C328.302 236.308 356.043 208.547 356.043 174.4C356.043 140.252 328.302 112.491 294.178 112.491Z" fill="#231F20"/>
<path d="M294.178 215.104C311.52 215.104 325.579 201.036 325.579 183.682C325.579 166.327 311.52 152.259 294.178 152.259C276.836 152.259 262.778 166.327 262.778 183.682C262.778 201.036 276.836 215.104 294.178 215.104Z" fill="#231F20"/>
<path d="M286.435 190.835C293.531 190.835 299.284 185.078 299.284 177.976C299.284 170.875 293.531 165.118 286.435 165.118C279.338 165.118 273.585 170.875 273.585 177.976C273.585 185.078 279.338 190.835 286.435 190.835Z" fill="white"/>
<path d="M3.65911 37.7241C16.9341 50.8382 30.039 28.4421 72.7574 22.8218C108.413 18.1382 130.027 33.0406 136.58 22.5664C143.047 12.007 115.391 -3.91719 62.9713 0.851552C24.0822 4.42811 -11.7433 22.5664 3.65911 37.7241Z" fill="#231F20"/>
<path d="M352.299 31.8484C335.705 22.4812 328.046 47.5171 286.349 63.867C251.63 77.492 226.101 68.4655 222.187 80.3022C218.187 92.1389 250.013 100.569 301.582 82.6865C339.96 69.317 371.531 42.6632 352.299 31.8484Z" fill="#231F20"/>
<path d="M62.7161 386.098C62.7161 386.098 110.285 290.382 194.615 292.511C278.946 294.725 307.538 353.313 307.538 353.313C307.538 353.313 271.457 318.91 202.019 324.189C112.242 331.002 62.7161 386.098 62.7161 386.098Z" fill="#231F20"/>
<path d="M303.369 327.851C307.964 333.216 311.112 339.773 312.644 346.67C314.006 352.887 314.601 361.147 309.836 366.171C307.623 368.556 304.305 370.003 301.071 369.237C298.348 368.556 297.157 372.728 299.88 373.409C303.624 374.346 307.623 373.409 310.772 371.11C314.091 368.641 316.218 364.979 317.154 360.891C319.026 352.887 317.069 344.031 313.835 336.537C311.963 332.194 309.41 328.277 306.432 324.7C305.666 323.763 304.134 323.934 303.369 324.7C302.432 325.637 302.603 326.914 303.369 327.851Z" fill="#231F20"/>
<path d="M68.1622 396.572C62.1204 397.423 55.4829 394.528 51.8237 389.589C47.9093 384.224 47.4838 376.73 50.6324 370.855C51.9939 368.385 48.2497 366.171 46.8881 368.641C43.8247 374.261 43.3141 381.244 45.6968 387.205C47.9944 393.166 52.8449 397.594 58.8867 399.808C62.2906 401 65.7795 401.255 69.3536 400.744C70.5449 400.574 71.1406 399.127 70.8853 398.019C70.5449 396.827 69.3536 396.402 68.1622 396.572Z" fill="#231F20"/>
</g>
<defs>
<clipPath id="clip0_634_110">
<rect width="362" height="401" fill="white"/>
</clipPath>
</defs>
</svg>
