<svg width="150" height="166" viewBox="0 0 150 166" fill="none" xmlns="http://www.w3.org/2000/svg">
<g clip-path="url(#clip0_669_18)">
<path d="M121.897 99.0571C136.736 99.0571 148.766 87.0307 148.766 72.1954C148.766 57.36 136.736 45.3336 121.897 45.3336C107.058 45.3336 95.0281 57.36 95.0281 72.1954C95.0281 87.0307 107.058 99.0571 121.897 99.0571Z" fill="white"/>
<path d="M33.4977 99.0571C48.337 99.0571 60.3666 87.0307 60.3666 72.1954C60.3666 57.36 48.337 45.3336 33.4977 45.3336C18.6585 45.3336 6.62891 57.36 6.62891 72.1954C6.62891 87.0307 18.6585 99.0571 33.4977 99.0571Z" fill="white"/>
<path d="M49.2948 50.5156C52.0452 54.7458 53.6319 59.7516 53.6319 65.1803C53.6319 80.0212 41.6079 92.0421 26.7631 92.0421C20.8392 92.0421 15.3738 90.1032 10.9309 86.8601C15.7264 94.1924 24.0127 99.0571 33.4626 99.0571C48.3075 99.0571 60.3315 87.0363 60.3315 72.1954C60.3315 63.2767 55.9944 55.3804 49.2948 50.5156Z" fill="#EFEFEF"/>
<path d="M137.694 50.5156C140.444 54.7458 142.031 59.7516 142.031 65.1803C142.031 80.0212 130.007 92.0421 115.162 92.0421C109.238 92.0421 103.773 90.1032 99.3301 86.8601C104.126 94.2277 112.412 99.0571 121.862 99.0571C136.707 99.0571 148.731 87.0363 148.731 72.1954C148.731 63.2767 144.358 55.3804 137.694 50.5156Z" fill="#EFEFEF"/>
<path d="M33.4977 100.291C18.0182 100.291 5.39478 87.6709 5.39478 72.1954C5.39478 56.7199 17.9829 44.0998 33.4977 44.0998C48.9773 44.0998 61.6007 56.7199 61.6007 72.1954C61.6007 87.6709 48.9773 100.291 33.4977 100.291ZM33.4977 46.5674C19.3581 46.5674 7.86304 58.0595 7.86304 72.1954C7.86304 86.3313 19.3581 97.8233 33.4977 97.8233C47.6374 97.8233 59.1324 86.3313 59.1324 72.1954C59.1324 58.0595 47.6374 46.5674 33.4977 46.5674Z" fill="#231F20"/>
<path d="M33.4979 89.0457C40.6838 89.0457 46.5091 83.2219 46.5091 76.0378C46.5091 68.8538 40.6838 63.03 33.4979 63.03C26.3119 63.03 20.4866 68.8538 20.4866 76.0378C20.4866 83.2219 26.3119 89.0457 33.4979 89.0457Z" fill="#231F20"/>
<path d="M30.289 78.999C33.2296 78.999 35.6134 76.6158 35.6134 73.676C35.6134 70.7362 33.2296 68.353 30.289 68.353C27.3484 68.353 24.9646 70.7362 24.9646 73.676C24.9646 76.6158 27.3484 78.999 30.289 78.999Z" fill="white"/>
<path d="M121.897 100.291C106.417 100.291 93.7939 87.6709 93.7939 72.1954C93.7939 56.7199 106.417 44.0998 121.897 44.0998C137.376 44.0998 150 56.7199 150 72.1954C150 87.6709 137.376 100.291 121.897 100.291ZM121.897 46.5674C107.757 46.5674 96.2622 58.0595 96.2622 72.1954C96.2622 86.3313 107.757 97.8233 121.897 97.8233C136.037 97.8233 147.532 86.3313 147.532 72.1954C147.532 58.0595 136.037 46.5674 121.897 46.5674Z" fill="#231F20"/>
<path d="M121.897 89.0457C129.083 89.0457 134.908 83.2219 134.908 76.0378C134.908 68.8538 129.083 63.03 121.897 63.03C114.711 63.03 108.886 68.8538 108.886 76.0378C108.886 83.2219 114.711 89.0457 121.897 89.0457Z" fill="#231F20"/>
<path d="M118.688 78.999C121.629 78.999 124.013 76.6158 124.013 73.676C124.013 70.7362 121.629 68.353 118.688 68.353C115.748 68.353 113.364 70.7362 113.364 73.676C113.364 76.6158 115.748 78.999 118.688 78.999Z" fill="white"/>
<path d="M1.51613 15.6165C7.01684 21.0452 12.447 11.7741 30.148 9.44745C44.9223 7.5086 53.8786 13.6776 56.5937 9.34169C59.2735 4.97049 47.8137 -1.62157 26.093 0.352521C9.97875 1.83309 -4.8661 9.34169 1.51613 15.6165Z" fill="#231F20"/>
<path d="M145.98 13.1841C139.104 9.30644 135.931 19.6704 118.653 26.4387C104.266 32.079 93.6882 28.3423 92.0662 33.2423C90.4089 38.1423 103.597 41.6322 124.965 34.2294C140.867 28.6948 153.949 17.6611 145.98 13.1841Z" fill="#231F20"/>
<path d="M25.9873 159.831C25.9873 159.831 45.6982 120.208 80.6417 121.089C115.585 122.006 127.433 146.259 127.433 146.259C127.433 146.259 112.482 132.017 83.7094 134.203C46.5092 137.023 25.9873 159.831 25.9873 159.831Z" fill="#231F20"/>
<path d="M125.705 135.719C127.609 137.94 128.914 140.654 129.548 143.509C130.113 146.083 130.359 149.502 128.385 151.582C127.468 152.569 126.093 153.168 124.753 152.851C123.625 152.569 123.131 154.296 124.259 154.578C125.811 154.966 127.468 154.578 128.773 153.627C130.148 152.604 131.029 151.089 131.417 149.396C132.193 146.083 131.382 142.417 130.042 139.315C129.266 137.517 128.209 135.895 126.974 134.415C126.657 134.027 126.022 134.097 125.705 134.415C125.317 134.802 125.388 135.331 125.705 135.719Z" fill="#231F20"/>
<path d="M28.2439 164.167C25.7403 164.519 22.99 163.321 21.4738 161.276C19.8518 159.055 19.6755 155.953 20.9801 153.521C21.5443 152.499 19.9928 151.582 19.4286 152.604C18.1592 154.931 17.9477 157.822 18.935 160.289C19.887 162.757 21.8969 164.59 24.4004 165.506C25.8109 166 27.2566 166.106 28.7375 165.894C29.2312 165.824 29.478 165.224 29.3722 164.766C29.2312 164.273 28.7375 164.096 28.2439 164.167Z" fill="#231F20"/>
</g>
<defs>
<clipPath id="clip0_669_18">
<rect width="150" height="166" fill="white"/>
</clipPath>
</defs>
</svg>
